<mxfile host="65bd71144e">
    <diagram id="VyMKmy9fbJkNHnWvZDM-" name="Page-1">
        <mxGraphModel dx="535" dy="1621" grid="1" gridSize="10" guides="1" tooltips="1" connect="1" arrows="1" fold="1" page="1" pageScale="1" pageWidth="827" pageHeight="1169" math="0" shadow="0">
            <root>
                <mxCell id="0"/>
                <mxCell id="1" parent="0"/>
                <mxCell id="qFfS1wxihUVJw3m_GyYS-9" style="edgeStyle=orthogonalEdgeStyle;rounded=0;orthogonalLoop=1;jettySize=auto;html=1;entryX=0;entryY=0.5;entryDx=0;entryDy=0;fontSize=5;" parent="1" source="qFfS1wxihUVJw3m_GyYS-1" target="qFfS1wxihUVJw3m_GyYS-2" edge="1">
                    <mxGeometry relative="1" as="geometry"/>
                </mxCell>
                <mxCell id="qFfS1wxihUVJw3m_GyYS-10" style="edgeStyle=orthogonalEdgeStyle;rounded=0;orthogonalLoop=1;jettySize=auto;html=1;entryX=0;entryY=0.5;entryDx=0;entryDy=0;fontSize=5;" parent="1" source="qFfS1wxihUVJw3m_GyYS-1" target="qFfS1wxihUVJw3m_GyYS-3" edge="1">
                    <mxGeometry relative="1" as="geometry"/>
                </mxCell>
                <mxCell id="qFfS1wxihUVJw3m_GyYS-16" value="" style="edgeStyle=orthogonalEdgeStyle;rounded=0;orthogonalLoop=1;jettySize=auto;html=1;fontSize=5;" parent="1" source="qFfS1wxihUVJw3m_GyYS-1" target="qFfS1wxihUVJw3m_GyYS-6" edge="1">
                    <mxGeometry relative="1" as="geometry"/>
                </mxCell>
                <mxCell id="6" value="" style="edgeStyle=none;html=1;" parent="1" source="qFfS1wxihUVJw3m_GyYS-1" target="5" edge="1">
                    <mxGeometry relative="1" as="geometry"/>
                </mxCell>
                <mxCell id="qFfS1wxihUVJw3m_GyYS-1" value="Root" style="rounded=0;whiteSpace=wrap;html=1;fontSize=5;fillColor=#bac8d3;strokeColor=#23445d;" parent="1" vertex="1">
                    <mxGeometry x="440" y="200" width="40" height="40" as="geometry"/>
                </mxCell>
                <mxCell id="qFfS1wxihUVJw3m_GyYS-11" style="edgeStyle=orthogonalEdgeStyle;rounded=0;orthogonalLoop=1;jettySize=auto;html=1;entryX=0;entryY=0.5;entryDx=0;entryDy=0;fontSize=5;" parent="1" source="qFfS1wxihUVJw3m_GyYS-2" target="qFfS1wxihUVJw3m_GyYS-5" edge="1">
                    <mxGeometry relative="1" as="geometry"/>
                </mxCell>
                <mxCell id="qFfS1wxihUVJw3m_GyYS-15" value="" style="edgeStyle=orthogonalEdgeStyle;rounded=0;orthogonalLoop=1;jettySize=auto;html=1;fontSize=5;" parent="1" source="qFfS1wxihUVJw3m_GyYS-2" target="qFfS1wxihUVJw3m_GyYS-7" edge="1">
                    <mxGeometry relative="1" as="geometry"/>
                </mxCell>
                <mxCell id="qFfS1wxihUVJw3m_GyYS-2" value="Scraper" style="rounded=0;whiteSpace=wrap;html=1;fontSize=5;fillColor=#60a917;fontColor=#ffffff;strokeColor=#2D7600;" parent="1" vertex="1">
                    <mxGeometry x="520" y="160" width="40" height="40" as="geometry"/>
                </mxCell>
                <mxCell id="qFfS1wxihUVJw3m_GyYS-12" style="edgeStyle=orthogonalEdgeStyle;rounded=0;orthogonalLoop=1;jettySize=auto;html=1;entryX=0;entryY=0.5;entryDx=0;entryDy=0;fontSize=5;" parent="1" source="qFfS1wxihUVJw3m_GyYS-3" target="qFfS1wxihUVJw3m_GyYS-5" edge="1">
                    <mxGeometry relative="1" as="geometry"/>
                </mxCell>
                <mxCell id="qFfS1wxihUVJw3m_GyYS-14" value="" style="edgeStyle=orthogonalEdgeStyle;rounded=0;orthogonalLoop=1;jettySize=auto;html=1;fontSize=5;" parent="1" source="qFfS1wxihUVJw3m_GyYS-3" target="qFfS1wxihUVJw3m_GyYS-4" edge="1">
                    <mxGeometry relative="1" as="geometry"/>
                </mxCell>
                <mxCell id="qFfS1wxihUVJw3m_GyYS-3" value="Flutterpillar" style="rounded=0;whiteSpace=wrap;html=1;fontSize=5;fillColor=#60a917;fontColor=#ffffff;strokeColor=#2D7600;" parent="1" vertex="1">
                    <mxGeometry x="520" y="240" width="40" height="40" as="geometry"/>
                </mxCell>
                <mxCell id="qFfS1wxihUVJw3m_GyYS-4" value="Flutterfly" style="rounded=0;whiteSpace=wrap;html=1;fontSize=5;fillColor=#60a917;fontColor=#ffffff;strokeColor=#2D7600;" parent="1" vertex="1">
                    <mxGeometry x="520" y="320" width="40" height="40" as="geometry"/>
                </mxCell>
                <mxCell id="qFfS1wxihUVJw3m_GyYS-13" style="edgeStyle=orthogonalEdgeStyle;rounded=0;orthogonalLoop=1;jettySize=auto;html=1;entryX=0;entryY=0.5;entryDx=0;entryDy=0;fontSize=5;" parent="1" source="qFfS1wxihUVJw3m_GyYS-5" target="qFfS1wxihUVJw3m_GyYS-8" edge="1">
                    <mxGeometry relative="1" as="geometry"/>
                </mxCell>
                <mxCell id="qFfS1wxihUVJw3m_GyYS-5" value="Iris" style="rounded=0;whiteSpace=wrap;html=1;fontSize=5;fillColor=#60a917;fontColor=#ffffff;strokeColor=#2D7600;" parent="1" vertex="1">
                    <mxGeometry x="600" y="200" width="40" height="40" as="geometry"/>
                </mxCell>
                <mxCell id="qFfS1wxihUVJw3m_GyYS-18" style="edgeStyle=orthogonalEdgeStyle;rounded=0;orthogonalLoop=1;jettySize=auto;html=1;entryX=0.5;entryY=1;entryDx=0;entryDy=0;fontSize=5;" parent="1" source="qFfS1wxihUVJw3m_GyYS-6" target="qFfS1wxihUVJw3m_GyYS-17" edge="1">
                    <mxGeometry relative="1" as="geometry"/>
                </mxCell>
                <mxCell id="qFfS1wxihUVJw3m_GyYS-6" value="Iron-rich blood" style="rounded=0;whiteSpace=wrap;html=1;fontSize=5;fillColor=#60a917;fontColor=#ffffff;strokeColor=#2D7600;" parent="1" vertex="1">
                    <mxGeometry x="440" y="80" width="40" height="40" as="geometry"/>
                </mxCell>
                <mxCell id="qFfS1wxihUVJw3m_GyYS-19" style="edgeStyle=orthogonalEdgeStyle;rounded=0;orthogonalLoop=1;jettySize=auto;html=1;entryX=0.5;entryY=1;entryDx=0;entryDy=0;fontSize=5;" parent="1" source="qFfS1wxihUVJw3m_GyYS-7" target="qFfS1wxihUVJw3m_GyYS-17" edge="1">
                    <mxGeometry relative="1" as="geometry"/>
                </mxCell>
                <mxCell id="qFfS1wxihUVJw3m_GyYS-21" value="" style="edgeStyle=orthogonalEdgeStyle;rounded=0;orthogonalLoop=1;jettySize=auto;html=1;fontSize=5;" parent="1" source="qFfS1wxihUVJw3m_GyYS-7" target="qFfS1wxihUVJw3m_GyYS-20" edge="1">
                    <mxGeometry relative="1" as="geometry"/>
                </mxCell>
                <mxCell id="qFfS1wxihUVJw3m_GyYS-7" value="Fleshy Tentacle" style="rounded=0;whiteSpace=wrap;html=1;fontSize=5;fillColor=#60a917;fontColor=#ffffff;strokeColor=#2D7600;" parent="1" vertex="1">
                    <mxGeometry x="520" y="80" width="40" height="40" as="geometry"/>
                </mxCell>
                <mxCell id="qFfS1wxihUVJw3m_GyYS-25" value="" style="edgeStyle=orthogonalEdgeStyle;rounded=0;orthogonalLoop=1;jettySize=auto;html=1;fontSize=5;" parent="1" source="qFfS1wxihUVJw3m_GyYS-8" target="qFfS1wxihUVJw3m_GyYS-24" edge="1">
                    <mxGeometry relative="1" as="geometry"/>
                </mxCell>
                <mxCell id="qFfS1wxihUVJw3m_GyYS-27" value="" style="edgeStyle=orthogonalEdgeStyle;rounded=0;orthogonalLoop=1;jettySize=auto;html=1;fontSize=5;" parent="1" source="qFfS1wxihUVJw3m_GyYS-8" target="qFfS1wxihUVJw3m_GyYS-26" edge="1">
                    <mxGeometry relative="1" as="geometry"/>
                </mxCell>
                <mxCell id="qFfS1wxihUVJw3m_GyYS-8" value="Symbiotic Glass" style="rounded=0;whiteSpace=wrap;html=1;fontSize=5;fillColor=#60a917;fontColor=#ffffff;strokeColor=#2D7600;" parent="1" vertex="1">
                    <mxGeometry x="680" y="200" width="40" height="40" as="geometry"/>
                </mxCell>
                <mxCell id="qFfS1wxihUVJw3m_GyYS-30" style="edgeStyle=orthogonalEdgeStyle;rounded=0;orthogonalLoop=1;jettySize=auto;html=1;entryX=0;entryY=0.5;entryDx=0;entryDy=0;fontSize=5;" parent="1" source="qFfS1wxihUVJw3m_GyYS-17" target="qFfS1wxihUVJw3m_GyYS-22" edge="1">
                    <mxGeometry relative="1" as="geometry">
                        <Array as="points">
                            <mxPoint x="540" y="20"/>
                            <mxPoint x="540" y="-20"/>
                        </Array>
                    </mxGeometry>
                </mxCell>
                <mxCell id="qFfS1wxihUVJw3m_GyYS-17" value="Celadon" style="rounded=0;whiteSpace=wrap;html=1;fontSize=5;fillColor=#60a917;fontColor=#ffffff;strokeColor=#2D7600;" parent="1" vertex="1">
                    <mxGeometry x="480" width="40" height="40" as="geometry"/>
                </mxCell>
                <mxCell id="qFfS1wxihUVJw3m_GyYS-23" value="" style="edgeStyle=orthogonalEdgeStyle;rounded=0;orthogonalLoop=1;jettySize=auto;html=1;fontSize=5;" parent="1" source="qFfS1wxihUVJw3m_GyYS-20" target="qFfS1wxihUVJw3m_GyYS-22" edge="1">
                    <mxGeometry relative="1" as="geometry"/>
                </mxCell>
                <mxCell id="qFfS1wxihUVJw3m_GyYS-20" value="Envoyant Egg" style="rounded=0;whiteSpace=wrap;html=1;fontSize=5;fillColor=#008a00;fontColor=#ffffff;strokeColor=#005700;" parent="1" vertex="1">
                    <mxGeometry x="600" y="40" width="40" height="40" as="geometry"/>
                </mxCell>
                <mxCell id="qFfS1wxihUVJw3m_GyYS-29" value="" style="edgeStyle=orthogonalEdgeStyle;rounded=0;orthogonalLoop=1;jettySize=auto;html=1;fontSize=5;" parent="1" source="qFfS1wxihUVJw3m_GyYS-22" target="qFfS1wxihUVJw3m_GyYS-28" edge="1">
                    <mxGeometry relative="1" as="geometry"/>
                </mxCell>
                <mxCell id="qFfS1wxihUVJw3m_GyYS-32" style="edgeStyle=orthogonalEdgeStyle;rounded=0;orthogonalLoop=1;jettySize=auto;html=1;entryX=0;entryY=0.5;entryDx=0;entryDy=0;fontSize=5;" parent="1" source="qFfS1wxihUVJw3m_GyYS-22" target="qFfS1wxihUVJw3m_GyYS-31" edge="1">
                    <mxGeometry relative="1" as="geometry"/>
                </mxCell>
                <mxCell id="qFfS1wxihUVJw3m_GyYS-22" value="Envoyant&amp;nbsp;" style="rounded=0;whiteSpace=wrap;html=1;fontSize=5;fillColor=#008a00;fontColor=#ffffff;strokeColor=#005700;" parent="1" vertex="1">
                    <mxGeometry x="600" y="-40" width="40" height="40" as="geometry"/>
                </mxCell>
                <mxCell id="qFfS1wxihUVJw3m_GyYS-24" value="Containment Vial" style="rounded=0;whiteSpace=wrap;html=1;fontSize=5;fillColor=#60a917;fontColor=#ffffff;strokeColor=#2D7600;" parent="1" vertex="1">
                    <mxGeometry x="680" y="280" width="40" height="40" as="geometry"/>
                </mxCell>
                <mxCell id="qFfS1wxihUVJw3m_GyYS-26" value="Glass Visor" style="rounded=0;whiteSpace=wrap;html=1;fontSize=5;fillColor=#60a917;fontColor=#ffffff;strokeColor=#2D7600;" parent="1" vertex="1">
                    <mxGeometry x="680" y="120" width="40" height="40" as="geometry"/>
                </mxCell>
                <mxCell id="10" value="" style="edgeStyle=none;html=1;" parent="1" source="qFfS1wxihUVJw3m_GyYS-28" target="9" edge="1">
                    <mxGeometry relative="1" as="geometry"/>
                </mxCell>
                <mxCell id="qFfS1wxihUVJw3m_GyYS-28" value="Hive Seeds" style="rounded=0;whiteSpace=wrap;html=1;fontSize=5;fillColor=#0050ef;fontColor=#ffffff;strokeColor=#001DBC;" parent="1" vertex="1">
                    <mxGeometry x="680" width="40" height="40" as="geometry"/>
                </mxCell>
                <mxCell id="qFfS1wxihUVJw3m_GyYS-31" value="Celadon&amp;nbsp; Items" style="rounded=0;whiteSpace=wrap;html=1;fontSize=5;fillColor=#0050ef;fontColor=#ffffff;strokeColor=#001DBC;" parent="1" vertex="1">
                    <mxGeometry x="680" y="-80" width="40" height="40" as="geometry"/>
                </mxCell>
                <mxCell id="2" value="Flesh Whip" style="rounded=0;whiteSpace=wrap;html=1;fontSize=5;fillColor=#60a917;fontColor=#ffffff;strokeColor=#2D7600;" parent="1" vertex="1">
                    <mxGeometry x="600" y="120" width="40" height="40" as="geometry"/>
                </mxCell>
                <mxCell id="4" value="" style="edgeStyle=orthogonalEdgeStyle;rounded=0;orthogonalLoop=1;jettySize=auto;html=1;fontSize=5;entryX=0;entryY=0.5;entryDx=0;entryDy=0;" parent="1" target="2" edge="1">
                    <mxGeometry relative="1" as="geometry">
                        <mxPoint x="560" y="100" as="sourcePoint"/>
                        <mxPoint x="610" y="70.0344827586207" as="targetPoint"/>
                    </mxGeometry>
                </mxCell>
                <mxCell id="8" value="" style="edgeStyle=none;html=1;" parent="1" source="5" target="7" edge="1">
                    <mxGeometry relative="1" as="geometry"/>
                </mxCell>
                <mxCell id="5" value="Bloater" style="rounded=0;whiteSpace=wrap;html=1;fontSize=5;fillColor=#60a917;fontColor=#ffffff;strokeColor=#2D7600;" parent="1" vertex="1">
                    <mxGeometry x="360" y="200" width="40" height="40" as="geometry"/>
                </mxCell>
                <mxCell id="7" value="Bloater Skin" style="rounded=0;whiteSpace=wrap;html=1;fontSize=5;fillColor=#60a917;fontColor=#ffffff;strokeColor=#2D7600;" parent="1" vertex="1">
                    <mxGeometry x="360" y="120" width="40" height="40" as="geometry"/>
                </mxCell>
                <mxCell id="9" value="HIve" style="rounded=0;whiteSpace=wrap;html=1;fontSize=5;fillColor=#0050ef;fontColor=#ffffff;strokeColor=#001DBC;" parent="1" vertex="1">
                    <mxGeometry x="760" width="40" height="40" as="geometry"/>
                </mxCell>
            </root>
        </mxGraphModel>
    </diagram>
</mxfile>